<?xml version="1.0" encoding="utf-8"?>
<svg xmlns="http://www.w3.org/2000/svg" xmlns:xlink="http://www.w3.org/1999/xlink" width="600" height="400" viewBox="0 0 2400 1600">
<defs>
  <clipPath id="clip580">
    <rect x="0" y="0" width="2400" height="1600"/>
  </clipPath>
</defs>
<path clip-path="url(#clip580)" d="M0 1600 L2400 1600 L2400 0 L0 0  Z" fill="#ffffff" fill-rule="evenodd" fill-opacity="1"/>
<defs>
  <clipPath id="clip581">
    <rect x="480" y="0" width="1681" height="1600"/>
  </clipPath>
</defs>
<path clip-path="url(#clip580)" d="M219.866 1423.18 L2352.76 1423.18 L2352.76 123.472 L219.866 123.472  Z" fill="#ffffff" fill-rule="evenodd" fill-opacity="1"/>
<defs>
  <clipPath id="clip582">
    <rect x="219" y="123" width="2134" height="1301"/>
  </clipPath>
</defs>
<polyline clip-path="url(#clip582)" style="stroke:#000000; stroke-linecap:round; stroke-linejoin:round; stroke-width:2; stroke-opacity:0.1; fill:none" points="481.447,1423.18 481.447,123.472 "/>
<polyline clip-path="url(#clip582)" style="stroke:#000000; stroke-linecap:round; stroke-linejoin:round; stroke-width:2; stroke-opacity:0.1; fill:none" points="883.879,1423.18 883.879,123.472 "/>
<polyline clip-path="url(#clip582)" style="stroke:#000000; stroke-linecap:round; stroke-linejoin:round; stroke-width:2; stroke-opacity:0.1; fill:none" points="1286.31,1423.18 1286.31,123.472 "/>
<polyline clip-path="url(#clip582)" style="stroke:#000000; stroke-linecap:round; stroke-linejoin:round; stroke-width:2; stroke-opacity:0.1; fill:none" points="1688.74,1423.18 1688.74,123.472 "/>
<polyline clip-path="url(#clip582)" style="stroke:#000000; stroke-linecap:round; stroke-linejoin:round; stroke-width:2; stroke-opacity:0.1; fill:none" points="2091.18,1423.18 2091.18,123.472 "/>
<polyline clip-path="url(#clip582)" style="stroke:#000000; stroke-linecap:round; stroke-linejoin:round; stroke-width:2; stroke-opacity:0.1; fill:none" points="219.866,1386.4 2352.76,1386.4 "/>
<polyline clip-path="url(#clip582)" style="stroke:#000000; stroke-linecap:round; stroke-linejoin:round; stroke-width:2; stroke-opacity:0.1; fill:none" points="219.866,1079.05 2352.76,1079.05 "/>
<polyline clip-path="url(#clip582)" style="stroke:#000000; stroke-linecap:round; stroke-linejoin:round; stroke-width:2; stroke-opacity:0.1; fill:none" points="219.866,771.703 2352.76,771.703 "/>
<polyline clip-path="url(#clip582)" style="stroke:#000000; stroke-linecap:round; stroke-linejoin:round; stroke-width:2; stroke-opacity:0.1; fill:none" points="219.866,464.354 2352.76,464.354 "/>
<polyline clip-path="url(#clip582)" style="stroke:#000000; stroke-linecap:round; stroke-linejoin:round; stroke-width:2; stroke-opacity:0.1; fill:none" points="219.866,157.005 2352.76,157.005 "/>
<polyline clip-path="url(#clip580)" style="stroke:#000000; stroke-linecap:round; stroke-linejoin:round; stroke-width:4; stroke-opacity:1; fill:none" points="219.866,1423.18 2352.76,1423.18 "/>
<polyline clip-path="url(#clip580)" style="stroke:#000000; stroke-linecap:round; stroke-linejoin:round; stroke-width:4; stroke-opacity:1; fill:none" points="481.447,1423.18 481.447,1404.28 "/>
<polyline clip-path="url(#clip580)" style="stroke:#000000; stroke-linecap:round; stroke-linejoin:round; stroke-width:4; stroke-opacity:1; fill:none" points="883.879,1423.18 883.879,1404.28 "/>
<polyline clip-path="url(#clip580)" style="stroke:#000000; stroke-linecap:round; stroke-linejoin:round; stroke-width:4; stroke-opacity:1; fill:none" points="1286.31,1423.18 1286.31,1404.28 "/>
<polyline clip-path="url(#clip580)" style="stroke:#000000; stroke-linecap:round; stroke-linejoin:round; stroke-width:4; stroke-opacity:1; fill:none" points="1688.74,1423.18 1688.74,1404.28 "/>
<polyline clip-path="url(#clip580)" style="stroke:#000000; stroke-linecap:round; stroke-linejoin:round; stroke-width:4; stroke-opacity:1; fill:none" points="2091.18,1423.18 2091.18,1404.28 "/>
<path clip-path="url(#clip580)" d="M450.348 1468.75 L480.023 1468.75 L480.023 1472.69 L450.348 1472.69 L450.348 1468.75 Z" fill="#000000" fill-rule="nonzero" fill-opacity="1" /><path clip-path="url(#clip580)" d="M502.963 1455.09 L491.158 1473.54 L502.963 1473.54 L502.963 1455.09 M501.736 1451.02 L507.616 1451.02 L507.616 1473.54 L512.546 1473.54 L512.546 1477.43 L507.616 1477.43 L507.616 1485.58 L502.963 1485.58 L502.963 1477.43 L487.361 1477.43 L487.361 1472.92 L501.736 1451.02 Z" fill="#000000" fill-rule="nonzero" fill-opacity="1" /><path clip-path="url(#clip580)" d="M853.821 1468.75 L883.497 1468.75 L883.497 1472.69 L853.821 1472.69 L853.821 1468.75 Z" fill="#000000" fill-rule="nonzero" fill-opacity="1" /><path clip-path="url(#clip580)" d="M897.617 1481.64 L913.937 1481.64 L913.937 1485.58 L891.992 1485.58 L891.992 1481.64 Q894.654 1478.89 899.238 1474.26 Q903.844 1469.61 905.025 1468.27 Q907.27 1465.74 908.15 1464.01 Q909.053 1462.25 909.053 1460.56 Q909.053 1457.8 907.108 1456.07 Q905.187 1454.33 902.085 1454.33 Q899.886 1454.33 897.432 1455.09 Q895.002 1455.86 892.224 1457.41 L892.224 1452.69 Q895.048 1451.55 897.502 1450.97 Q899.955 1450.39 901.992 1450.39 Q907.363 1450.39 910.557 1453.08 Q913.752 1455.77 913.752 1460.26 Q913.752 1462.39 912.941 1464.31 Q912.154 1466.2 910.048 1468.8 Q909.469 1469.47 906.367 1472.69 Q903.266 1475.88 897.617 1481.64 Z" fill="#000000" fill-rule="nonzero" fill-opacity="1" /><path clip-path="url(#clip580)" d="M1286.31 1454.1 Q1282.7 1454.1 1280.87 1457.66 Q1279.07 1461.2 1279.07 1468.33 Q1279.07 1475.44 1280.87 1479.01 Q1282.7 1482.55 1286.31 1482.55 Q1289.95 1482.55 1291.75 1479.01 Q1293.58 1475.44 1293.58 1468.33 Q1293.58 1461.2 1291.75 1457.66 Q1289.95 1454.1 1286.31 1454.1 M1286.31 1450.39 Q1292.12 1450.39 1295.18 1455 Q1298.26 1459.58 1298.26 1468.33 Q1298.26 1477.06 1295.18 1481.67 Q1292.12 1486.25 1286.31 1486.25 Q1280.5 1486.25 1277.42 1481.67 Q1274.37 1477.06 1274.37 1468.33 Q1274.37 1459.58 1277.42 1455 Q1280.5 1450.39 1286.31 1450.39 Z" fill="#000000" fill-rule="nonzero" fill-opacity="1" /><path clip-path="url(#clip580)" d="M1683.4 1481.64 L1699.72 1481.64 L1699.72 1485.58 L1677.77 1485.58 L1677.77 1481.64 Q1680.43 1478.89 1685.02 1474.26 Q1689.62 1469.61 1690.8 1468.27 Q1693.05 1465.74 1693.93 1464.01 Q1694.83 1462.25 1694.83 1460.56 Q1694.83 1457.8 1692.89 1456.07 Q1690.97 1454.33 1687.86 1454.33 Q1685.66 1454.33 1683.21 1455.09 Q1680.78 1455.86 1678 1457.41 L1678 1452.69 Q1680.83 1451.55 1683.28 1450.97 Q1685.73 1450.39 1687.77 1450.39 Q1693.14 1450.39 1696.34 1453.08 Q1699.53 1455.77 1699.53 1460.26 Q1699.53 1462.39 1698.72 1464.31 Q1697.93 1466.2 1695.83 1468.8 Q1695.25 1469.47 1692.15 1472.69 Q1689.04 1475.88 1683.4 1481.64 Z" fill="#000000" fill-rule="nonzero" fill-opacity="1" /><path clip-path="url(#clip580)" d="M2094.18 1455.09 L2082.38 1473.54 L2094.18 1473.54 L2094.18 1455.09 M2092.96 1451.02 L2098.84 1451.02 L2098.84 1473.54 L2103.77 1473.54 L2103.77 1477.43 L2098.84 1477.43 L2098.84 1485.58 L2094.18 1485.58 L2094.18 1477.43 L2078.58 1477.43 L2078.58 1472.92 L2092.96 1451.02 Z" fill="#000000" fill-rule="nonzero" fill-opacity="1" /><path clip-path="url(#clip580)" d="M1302.93 1532.4 L1290.04 1549.74 L1303.59 1568.04 L1296.69 1568.04 L1286.31 1554.04 L1275.93 1568.04 L1269.03 1568.04 L1282.87 1549.39 L1270.21 1532.4 L1277.11 1532.4 L1286.57 1545.1 L1296.02 1532.4 L1302.93 1532.4 Z" fill="#000000" fill-rule="nonzero" fill-opacity="1" /><polyline clip-path="url(#clip580)" style="stroke:#000000; stroke-linecap:round; stroke-linejoin:round; stroke-width:4; stroke-opacity:1; fill:none" points="219.866,1423.18 219.866,123.472 "/>
<polyline clip-path="url(#clip580)" style="stroke:#000000; stroke-linecap:round; stroke-linejoin:round; stroke-width:4; stroke-opacity:1; fill:none" points="219.866,1386.4 238.764,1386.4 "/>
<polyline clip-path="url(#clip580)" style="stroke:#000000; stroke-linecap:round; stroke-linejoin:round; stroke-width:4; stroke-opacity:1; fill:none" points="219.866,1079.05 238.764,1079.05 "/>
<polyline clip-path="url(#clip580)" style="stroke:#000000; stroke-linecap:round; stroke-linejoin:round; stroke-width:4; stroke-opacity:1; fill:none" points="219.866,771.703 238.764,771.703 "/>
<polyline clip-path="url(#clip580)" style="stroke:#000000; stroke-linecap:round; stroke-linejoin:round; stroke-width:4; stroke-opacity:1; fill:none" points="219.866,464.354 238.764,464.354 "/>
<polyline clip-path="url(#clip580)" style="stroke:#000000; stroke-linecap:round; stroke-linejoin:round; stroke-width:4; stroke-opacity:1; fill:none" points="219.866,157.005 238.764,157.005 "/>
<path clip-path="url(#clip580)" d="M126.691 1372.2 Q123.08 1372.2 121.251 1375.76 Q119.445 1379.31 119.445 1386.43 Q119.445 1393.54 121.251 1397.11 Q123.08 1400.65 126.691 1400.65 Q130.325 1400.65 132.13 1397.11 Q133.959 1393.54 133.959 1386.43 Q133.959 1379.31 132.13 1375.76 Q130.325 1372.2 126.691 1372.2 M126.691 1368.5 Q132.501 1368.5 135.556 1373.1 Q138.635 1377.69 138.635 1386.43 Q138.635 1395.16 135.556 1399.77 Q132.501 1404.35 126.691 1404.35 Q120.88 1404.35 117.802 1399.77 Q114.746 1395.16 114.746 1386.43 Q114.746 1377.69 117.802 1373.1 Q120.88 1368.5 126.691 1368.5 Z" fill="#000000" fill-rule="nonzero" fill-opacity="1" /><path clip-path="url(#clip580)" d="M146.853 1397.8 L151.737 1397.8 L151.737 1403.68 L146.853 1403.68 L146.853 1397.8 Z" fill="#000000" fill-rule="nonzero" fill-opacity="1" /><path clip-path="url(#clip580)" d="M171.922 1372.2 Q168.311 1372.2 166.482 1375.76 Q164.677 1379.31 164.677 1386.43 Q164.677 1393.54 166.482 1397.11 Q168.311 1400.65 171.922 1400.65 Q175.556 1400.65 177.362 1397.11 Q179.19 1393.54 179.19 1386.43 Q179.19 1379.31 177.362 1375.76 Q175.556 1372.2 171.922 1372.2 M171.922 1368.5 Q177.732 1368.5 180.788 1373.1 Q183.866 1377.69 183.866 1386.43 Q183.866 1395.16 180.788 1399.77 Q177.732 1404.35 171.922 1404.35 Q166.112 1404.35 163.033 1399.77 Q159.978 1395.16 159.978 1386.43 Q159.978 1377.69 163.033 1373.1 Q166.112 1368.5 171.922 1368.5 Z" fill="#000000" fill-rule="nonzero" fill-opacity="1" /><path clip-path="url(#clip580)" d="M127.917 1064.85 Q124.306 1064.85 122.478 1068.42 Q120.672 1071.96 120.672 1079.09 Q120.672 1086.19 122.478 1089.76 Q124.306 1093.3 127.917 1093.3 Q131.552 1093.3 133.357 1089.76 Q135.186 1086.19 135.186 1079.09 Q135.186 1071.96 133.357 1068.42 Q131.552 1064.85 127.917 1064.85 M127.917 1061.15 Q133.728 1061.15 136.783 1065.75 Q139.862 1070.34 139.862 1079.09 Q139.862 1087.81 136.783 1092.42 Q133.728 1097 127.917 1097 Q122.107 1097 119.029 1092.42 Q115.973 1087.81 115.973 1079.09 Q115.973 1070.34 119.029 1065.75 Q122.107 1061.15 127.917 1061.15 Z" fill="#000000" fill-rule="nonzero" fill-opacity="1" /><path clip-path="url(#clip580)" d="M148.079 1090.45 L152.964 1090.45 L152.964 1096.33 L148.079 1096.33 L148.079 1090.45 Z" fill="#000000" fill-rule="nonzero" fill-opacity="1" /><path clip-path="url(#clip580)" d="M163.959 1092.4 L171.598 1092.4 L171.598 1066.03 L163.288 1067.7 L163.288 1063.44 L171.552 1061.77 L176.227 1061.77 L176.227 1092.4 L183.866 1092.4 L183.866 1096.33 L163.959 1096.33 L163.959 1092.4 Z" fill="#000000" fill-rule="nonzero" fill-opacity="1" /><path clip-path="url(#clip580)" d="M128.288 757.502 Q124.677 757.502 122.848 761.066 Q121.043 764.608 121.043 771.738 Q121.043 778.844 122.848 782.409 Q124.677 785.95 128.288 785.95 Q131.922 785.95 133.728 782.409 Q135.556 778.844 135.556 771.738 Q135.556 764.608 133.728 761.066 Q131.922 757.502 128.288 757.502 M128.288 753.798 Q134.098 753.798 137.154 758.404 Q140.232 762.988 140.232 771.738 Q140.232 780.464 137.154 785.071 Q134.098 789.654 128.288 789.654 Q122.478 789.654 119.399 785.071 Q116.343 780.464 116.343 771.738 Q116.343 762.988 119.399 758.404 Q122.478 753.798 128.288 753.798 Z" fill="#000000" fill-rule="nonzero" fill-opacity="1" /><path clip-path="url(#clip580)" d="M148.45 783.103 L153.334 783.103 L153.334 788.983 L148.45 788.983 L148.45 783.103 Z" fill="#000000" fill-rule="nonzero" fill-opacity="1" /><path clip-path="url(#clip580)" d="M167.547 785.048 L183.866 785.048 L183.866 788.983 L161.922 788.983 L161.922 785.048 Q164.584 782.293 169.167 777.663 Q173.774 773.011 174.954 771.668 Q177.2 769.145 178.079 767.409 Q178.982 765.65 178.982 763.96 Q178.982 761.205 177.038 759.469 Q175.116 757.733 172.014 757.733 Q169.815 757.733 167.362 758.497 Q164.931 759.261 162.153 760.812 L162.153 756.089 Q164.977 754.955 167.431 754.377 Q169.885 753.798 171.922 753.798 Q177.292 753.798 180.487 756.483 Q183.681 759.168 183.681 763.659 Q183.681 765.789 182.871 767.71 Q182.084 769.608 179.977 772.201 Q179.399 772.872 176.297 776.089 Q173.195 779.284 167.547 785.048 Z" fill="#000000" fill-rule="nonzero" fill-opacity="1" /><path clip-path="url(#clip580)" d="M127.339 450.153 Q123.728 450.153 121.899 453.718 Q120.093 457.259 120.093 464.389 Q120.093 471.495 121.899 475.06 Q123.728 478.602 127.339 478.602 Q130.973 478.602 132.779 475.06 Q134.607 471.495 134.607 464.389 Q134.607 457.259 132.779 453.718 Q130.973 450.153 127.339 450.153 M127.339 446.449 Q133.149 446.449 136.204 451.056 Q139.283 455.639 139.283 464.389 Q139.283 473.116 136.204 477.722 Q133.149 482.305 127.339 482.305 Q121.529 482.305 118.45 477.722 Q115.394 473.116 115.394 464.389 Q115.394 455.639 118.45 451.056 Q121.529 446.449 127.339 446.449 Z" fill="#000000" fill-rule="nonzero" fill-opacity="1" /><path clip-path="url(#clip580)" d="M147.501 475.755 L152.385 475.755 L152.385 481.634 L147.501 481.634 L147.501 475.755 Z" fill="#000000" fill-rule="nonzero" fill-opacity="1" /><path clip-path="url(#clip580)" d="M176.737 463 Q180.093 463.718 181.968 465.986 Q183.866 468.255 183.866 471.588 Q183.866 476.704 180.348 479.505 Q176.829 482.305 170.348 482.305 Q168.172 482.305 165.857 481.866 Q163.565 481.449 161.112 480.592 L161.112 476.079 Q163.056 477.213 165.371 477.792 Q167.686 478.37 170.209 478.37 Q174.607 478.37 176.899 476.634 Q179.214 474.898 179.214 471.588 Q179.214 468.532 177.061 466.819 Q174.931 465.083 171.112 465.083 L167.084 465.083 L167.084 461.241 L171.297 461.241 Q174.746 461.241 176.575 459.875 Q178.403 458.486 178.403 455.894 Q178.403 453.231 176.505 451.819 Q174.63 450.384 171.112 450.384 Q169.19 450.384 166.991 450.801 Q164.792 451.218 162.153 452.097 L162.153 447.931 Q164.815 447.19 167.13 446.819 Q169.468 446.449 171.528 446.449 Q176.852 446.449 179.954 448.88 Q183.056 451.287 183.056 455.407 Q183.056 458.278 181.413 460.268 Q179.769 462.236 176.737 463 Z" fill="#000000" fill-rule="nonzero" fill-opacity="1" /><path clip-path="url(#clip580)" d="M126.205 142.804 Q122.593 142.804 120.765 146.369 Q118.959 149.911 118.959 157.04 Q118.959 164.147 120.765 167.711 Q122.593 171.253 126.205 171.253 Q129.839 171.253 131.644 167.711 Q133.473 164.147 133.473 157.04 Q133.473 149.911 131.644 146.369 Q129.839 142.804 126.205 142.804 M126.205 139.1 Q132.015 139.1 135.07 143.707 Q138.149 148.29 138.149 157.04 Q138.149 165.767 135.07 170.373 Q132.015 174.957 126.205 174.957 Q120.394 174.957 117.316 170.373 Q114.26 165.767 114.26 157.04 Q114.26 148.29 117.316 143.707 Q120.394 139.1 126.205 139.1 Z" fill="#000000" fill-rule="nonzero" fill-opacity="1" /><path clip-path="url(#clip580)" d="M146.366 168.406 L151.251 168.406 L151.251 174.285 L146.366 174.285 L146.366 168.406 Z" fill="#000000" fill-rule="nonzero" fill-opacity="1" /><path clip-path="url(#clip580)" d="M174.283 143.799 L162.477 162.248 L174.283 162.248 L174.283 143.799 M173.056 139.725 L178.936 139.725 L178.936 162.248 L183.866 162.248 L183.866 166.137 L178.936 166.137 L178.936 174.285 L174.283 174.285 L174.283 166.137 L158.681 166.137 L158.681 161.623 L173.056 139.725 Z" fill="#000000" fill-rule="nonzero" fill-opacity="1" /><path clip-path="url(#clip580)" d="M21.7677 886.636 L58.7206 886.636 L58.7206 878.869 Q58.7206 869.034 54.2646 864.483 Q49.8086 859.9 40.1964 859.9 Q30.6479 859.9 26.2237 864.483 Q21.7677 869.034 21.7677 878.869 L21.7677 886.636 M16.4842 893.065 L16.4842 879.856 Q16.4842 866.043 22.2451 859.581 Q27.9743 853.12 40.1964 853.12 Q52.4822 853.12 58.2432 859.613 Q64.0042 866.106 64.0042 879.856 L64.0042 893.065 L16.4842 893.065 Z" fill="#000000" fill-rule="nonzero" fill-opacity="1" /><path clip-path="url(#clip580)" d="M44.7161 812.634 L47.5806 812.634 L47.5806 839.561 Q53.6281 839.179 56.8109 835.933 Q59.9619 832.654 59.9619 826.83 Q59.9619 823.456 59.1344 820.305 Q58.3069 817.122 56.6518 814.003 L62.1899 814.003 Q63.5267 817.154 64.227 820.464 Q64.9272 823.774 64.9272 827.18 Q64.9272 835.71 59.9619 840.707 Q54.9967 845.672 46.5303 845.672 Q37.7774 845.672 32.6531 840.962 Q27.4968 836.219 27.4968 828.198 Q27.4968 821.005 32.1438 816.836 Q36.7589 812.634 44.7161 812.634 M42.9973 818.491 Q38.1912 818.554 35.3266 821.196 Q32.4621 823.806 32.4621 828.135 Q32.4621 833.036 35.2312 835.996 Q38.0002 838.925 43.0292 839.37 L42.9973 818.491 Z" fill="#000000" fill-rule="nonzero" fill-opacity="1" /><path clip-path="url(#clip580)" d="M42.4881 773.39 L64.0042 773.39 L64.0042 779.246 L42.679 779.246 Q37.6183 779.246 35.1038 781.219 Q32.5894 783.193 32.5894 787.14 Q32.5894 791.882 35.6131 794.619 Q38.6368 797.357 43.8567 797.357 L64.0042 797.357 L64.0042 803.245 L28.3562 803.245 L28.3562 797.357 L33.8944 797.357 Q30.6797 795.256 29.0883 792.423 Q27.4968 789.559 27.4968 785.835 Q27.4968 779.692 31.3163 776.541 Q35.1038 773.39 42.4881 773.39 Z" fill="#000000" fill-rule="nonzero" fill-opacity="1" /><path clip-path="url(#clip580)" d="M29.4065 738.983 L34.9447 738.983 Q33.6716 741.466 33.035 744.139 Q32.3984 746.813 32.3984 749.677 Q32.3984 754.038 33.7352 756.234 Q35.072 758.398 37.7456 758.398 Q39.7826 758.398 40.9603 756.839 Q42.1061 755.279 43.1565 750.569 L43.6021 748.563 Q44.9389 742.325 47.3897 739.715 Q49.8086 737.073 54.1691 737.073 Q59.1344 737.073 62.0308 741.02 Q64.9272 744.935 64.9272 751.81 Q64.9272 754.674 64.3543 757.794 Q63.8132 760.881 62.6992 764.319 L56.6518 764.319 Q58.3387 761.072 59.198 757.921 Q60.0256 754.77 60.0256 751.683 Q60.0256 747.545 58.6251 745.317 Q57.1929 743.089 54.6147 743.089 Q52.2276 743.089 50.9545 744.712 Q49.6813 746.304 48.5037 751.746 L48.0262 753.783 Q46.8804 759.226 44.5251 761.645 Q42.138 764.064 38.0002 764.064 Q32.9713 764.064 30.2341 760.499 Q27.4968 756.934 27.4968 750.378 Q27.4968 747.131 27.9743 744.267 Q28.4517 741.402 29.4065 738.983 Z" fill="#000000" fill-rule="nonzero" fill-opacity="1" /><path clip-path="url(#clip580)" d="M28.3562 727.748 L28.3562 721.891 L64.0042 721.891 L64.0042 727.748 L28.3562 727.748 M14.479 727.748 L14.479 721.891 L21.895 721.891 L21.895 727.748 L14.479 727.748 Z" fill="#000000" fill-rule="nonzero" fill-opacity="1" /><path clip-path="url(#clip580)" d="M18.2347 703.844 L28.3562 703.844 L28.3562 691.781 L32.9077 691.781 L32.9077 703.844 L52.2594 703.844 Q56.6199 703.844 57.8613 702.667 Q59.1026 701.457 59.1026 697.797 L59.1026 691.781 L64.0042 691.781 L64.0042 697.797 Q64.0042 704.576 61.4897 707.154 Q58.9434 709.733 52.2594 709.733 L32.9077 709.733 L32.9077 714.029 L28.3562 714.029 L28.3562 709.733 L18.2347 709.733 L18.2347 703.844 Z" fill="#000000" fill-rule="nonzero" fill-opacity="1" /><path clip-path="url(#clip580)" d="M67.3143 669.247 Q73.68 671.729 75.6216 674.085 Q77.5631 676.44 77.5631 680.387 L77.5631 685.065 L72.6615 685.065 L72.6615 681.628 Q72.6615 679.209 71.5157 677.872 Q70.3699 676.535 66.1048 674.912 L63.4312 673.862 L28.3562 688.28 L28.3562 682.074 L56.238 670.934 L28.3562 659.794 L28.3562 653.587 L67.3143 669.247 Z" fill="#000000" fill-rule="nonzero" fill-opacity="1" /><path clip-path="url(#clip580)" d="M729.494 18.8205 L729.494 65.8515 L739.378 65.8515 Q751.896 65.8515 757.688 60.1802 Q763.522 54.509 763.522 42.2752 Q763.522 30.1225 757.688 24.4918 Q751.896 18.8205 739.378 18.8205 L729.494 18.8205 M721.311 12.096 L738.122 12.096 Q755.703 12.096 763.927 19.4281 Q772.15 26.7198 772.15 42.2752 Q772.15 57.9117 763.886 65.2439 Q755.622 72.576 738.122 72.576 L721.311 72.576 L721.311 12.096 Z" fill="#000000" fill-rule="nonzero" fill-opacity="1" /><path clip-path="url(#clip580)" d="M823.678 48.0275 L823.678 51.6733 L789.407 51.6733 Q789.893 59.3701 794.025 63.421 Q798.197 67.4314 805.611 67.4314 Q809.904 67.4314 813.915 66.3781 Q817.966 65.3249 821.936 63.2184 L821.936 70.267 Q817.925 71.9684 813.712 72.8596 Q809.499 73.7508 805.165 73.7508 Q794.309 73.7508 787.949 67.4314 Q781.629 61.1119 781.629 50.3365 Q781.629 39.1965 787.625 32.6746 Q793.66 26.1121 803.869 26.1121 Q813.024 26.1121 818.33 32.0264 Q823.678 37.9003 823.678 48.0275 M816.224 45.84 Q816.143 39.7232 812.781 36.0774 Q809.459 32.4315 803.95 32.4315 Q797.711 32.4315 793.944 35.9558 Q790.217 39.4801 789.65 45.8805 L816.224 45.84 Z" fill="#000000" fill-rule="nonzero" fill-opacity="1" /><path clip-path="url(#clip580)" d="M873.625 45.1919 L873.625 72.576 L866.172 72.576 L866.172 45.4349 Q866.172 38.994 863.66 35.7938 Q861.148 32.5936 856.125 32.5936 Q850.089 32.5936 846.606 36.4419 Q843.122 40.2903 843.122 46.9338 L843.122 72.576 L835.628 72.576 L835.628 27.2059 L843.122 27.2059 L843.122 34.2544 Q845.796 30.163 849.401 28.1376 Q853.047 26.1121 857.786 26.1121 Q865.604 26.1121 869.615 30.9732 Q873.625 35.7938 873.625 45.1919 Z" fill="#000000" fill-rule="nonzero" fill-opacity="1" /><path clip-path="url(#clip580)" d="M917.415 28.5427 L917.415 35.5912 Q914.256 33.9709 910.853 33.1607 Q907.45 32.3505 903.804 32.3505 Q898.255 32.3505 895.46 34.0519 Q892.705 35.7533 892.705 39.156 Q892.705 41.7486 894.69 43.2475 Q896.675 44.7058 902.67 46.0426 L905.222 46.6097 Q913.162 48.3111 916.484 51.4303 Q919.846 54.509 919.846 60.0587 Q919.846 66.3781 914.823 70.0644 Q909.84 73.7508 901.09 73.7508 Q897.445 73.7508 893.475 73.0216 Q889.545 72.3329 885.17 70.9151 L885.17 63.2184 Q889.302 65.3654 893.313 66.4591 Q897.323 67.5124 901.252 67.5124 Q906.519 67.5124 909.354 65.73 Q912.19 63.9071 912.19 60.6258 Q912.19 57.5877 910.124 55.9673 Q908.098 54.3469 901.171 52.8481 L898.579 52.2405 Q891.652 50.7821 888.573 47.7845 Q885.494 44.7463 885.494 39.4801 Q885.494 33.0797 890.031 29.5959 Q894.568 26.1121 902.913 26.1121 Q907.045 26.1121 910.691 26.7198 Q914.337 27.3274 917.415 28.5427 Z" fill="#000000" fill-rule="nonzero" fill-opacity="1" /><path clip-path="url(#clip580)" d="M931.715 27.2059 L939.169 27.2059 L939.169 72.576 L931.715 72.576 L931.715 27.2059 M931.715 9.54393 L939.169 9.54393 L939.169 18.9825 L931.715 18.9825 L931.715 9.54393 Z" fill="#000000" fill-rule="nonzero" fill-opacity="1" /><path clip-path="url(#clip580)" d="M962.137 14.324 L962.137 27.2059 L977.49 27.2059 L977.49 32.9987 L962.137 32.9987 L962.137 57.6282 Q962.137 63.1779 963.636 64.7578 Q965.176 66.3376 969.834 66.3376 L977.49 66.3376 L977.49 72.576 L969.834 72.576 Q961.206 72.576 957.925 69.3758 Q954.643 66.1351 954.643 57.6282 L954.643 32.9987 L949.175 32.9987 L949.175 27.2059 L954.643 27.2059 L954.643 14.324 L962.137 14.324 Z" fill="#000000" fill-rule="nonzero" fill-opacity="1" /><path clip-path="url(#clip580)" d="M1026.1 48.0275 L1026.1 51.6733 L991.831 51.6733 Q992.317 59.3701 996.449 63.421 Q1000.62 67.4314 1008.03 67.4314 Q1012.33 67.4314 1016.34 66.3781 Q1020.39 65.3249 1024.36 63.2184 L1024.36 70.267 Q1020.35 71.9684 1016.14 72.8596 Q1011.92 73.7508 1007.59 73.7508 Q996.732 73.7508 990.372 67.4314 Q984.053 61.1119 984.053 50.3365 Q984.053 39.1965 990.048 32.6746 Q996.084 26.1121 1006.29 26.1121 Q1015.45 26.1121 1020.75 32.0264 Q1026.1 37.9003 1026.1 48.0275 M1018.65 45.84 Q1018.57 39.7232 1015.2 36.0774 Q1011.88 32.4315 1006.37 32.4315 Q1000.13 32.4315 996.368 35.9558 Q992.641 39.4801 992.074 45.8805 L1018.65 45.84 M1011.48 6.22219 L1019.54 6.22219 L1006.33 21.4536 L1000.13 21.4536 L1011.48 6.22219 Z" fill="#000000" fill-rule="nonzero" fill-opacity="1" /><path clip-path="url(#clip580)" d="M1094.56 34.0924 L1094.56 9.54393 L1102.02 9.54393 L1102.02 72.576 L1094.56 72.576 L1094.56 65.7705 Q1092.21 69.8214 1088.61 71.8063 Q1085.04 73.7508 1080.02 73.7508 Q1071.8 73.7508 1066.61 67.1883 Q1061.47 60.6258 1061.47 49.9314 Q1061.47 39.2371 1066.61 32.6746 Q1071.8 26.1121 1080.02 26.1121 Q1085.04 26.1121 1088.61 28.0971 Q1092.21 30.0415 1094.56 34.0924 M1069.16 49.9314 Q1069.16 58.1548 1072.52 62.8538 Q1075.93 67.5124 1081.84 67.5124 Q1087.76 67.5124 1091.16 62.8538 Q1094.56 58.1548 1094.56 49.9314 Q1094.56 41.7081 1091.16 37.0496 Q1087.76 32.3505 1081.84 32.3505 Q1075.93 32.3505 1072.52 37.0496 Q1069.16 41.7081 1069.16 49.9314 Z" fill="#000000" fill-rule="nonzero" fill-opacity="1" /><path clip-path="url(#clip580)" d="M1156.18 48.0275 L1156.18 51.6733 L1121.91 51.6733 Q1122.39 59.3701 1126.52 63.421 Q1130.7 67.4314 1138.11 67.4314 Q1142.4 67.4314 1146.41 66.3781 Q1150.46 65.3249 1154.43 63.2184 L1154.43 70.267 Q1150.42 71.9684 1146.21 72.8596 Q1142 73.7508 1137.66 73.7508 Q1126.81 73.7508 1120.45 67.4314 Q1114.13 61.1119 1114.13 50.3365 Q1114.13 39.1965 1120.12 32.6746 Q1126.16 26.1121 1136.37 26.1121 Q1145.52 26.1121 1150.83 32.0264 Q1156.18 37.9003 1156.18 48.0275 M1148.72 45.84 Q1148.64 39.7232 1145.28 36.0774 Q1141.96 32.4315 1136.45 32.4315 Q1130.21 32.4315 1126.44 35.9558 Q1122.72 39.4801 1122.15 45.8805 L1148.72 45.84 Z" fill="#000000" fill-rule="nonzero" fill-opacity="1" /><path clip-path="url(#clip580)" d="M1197.33 28.5427 L1197.33 35.5912 Q1194.17 33.9709 1190.77 33.1607 Q1187.37 32.3505 1183.72 32.3505 Q1178.17 32.3505 1175.38 34.0519 Q1172.62 35.7533 1172.62 39.156 Q1172.62 41.7486 1174.61 43.2475 Q1176.59 44.7058 1182.59 46.0426 L1185.14 46.6097 Q1193.08 48.3111 1196.4 51.4303 Q1199.76 54.509 1199.76 60.0587 Q1199.76 66.3781 1194.74 70.0644 Q1189.76 73.7508 1181.01 73.7508 Q1177.36 73.7508 1173.39 73.0216 Q1169.46 72.3329 1165.09 70.9151 L1165.09 63.2184 Q1169.22 65.3654 1173.23 66.4591 Q1177.24 67.5124 1181.17 67.5124 Q1186.44 67.5124 1189.27 65.73 Q1192.11 63.9071 1192.11 60.6258 Q1192.11 57.5877 1190.04 55.9673 Q1188.02 54.3469 1181.09 52.8481 L1178.5 52.2405 Q1171.57 50.7821 1168.49 47.7845 Q1165.41 44.7463 1165.41 39.4801 Q1165.41 33.0797 1169.95 29.5959 Q1174.49 26.1121 1182.83 26.1121 Q1186.96 26.1121 1190.61 26.7198 Q1194.25 27.3274 1197.33 28.5427 Z" fill="#000000" fill-rule="nonzero" fill-opacity="1" /><path clip-path="url(#clip580)" d="M1238 9.54393 L1245.46 9.54393 L1245.46 72.576 L1238 72.576 L1238 9.54393 Z" fill="#000000" fill-rule="nonzero" fill-opacity="1" /><path clip-path="url(#clip580)" d="M1278.63 32.4315 Q1272.64 32.4315 1269.16 37.1306 Q1265.67 41.7891 1265.67 49.9314 Q1265.67 58.0738 1269.11 62.7728 Q1272.6 67.4314 1278.63 67.4314 Q1284.59 67.4314 1288.07 62.7323 Q1291.56 58.0333 1291.56 49.9314 Q1291.56 41.8701 1288.07 37.1711 Q1284.59 32.4315 1278.63 32.4315 M1278.63 26.1121 Q1288.36 26.1121 1293.91 32.4315 Q1299.46 38.7509 1299.46 49.9314 Q1299.46 61.0714 1293.91 67.4314 Q1288.36 73.7508 1278.63 73.7508 Q1268.87 73.7508 1263.32 67.4314 Q1257.81 61.0714 1257.81 49.9314 Q1257.81 38.7509 1263.32 32.4315 Q1268.87 26.1121 1278.63 26.1121 Z" fill="#000000" fill-rule="nonzero" fill-opacity="1" /><path clip-path="url(#clip580)" d="M1311.81 27.2059 L1319.27 27.2059 L1319.27 72.576 L1311.81 72.576 L1311.81 27.2059 M1311.81 9.54393 L1319.27 9.54393 L1319.27 18.9825 L1311.81 18.9825 L1311.81 9.54393 Z" fill="#000000" fill-rule="nonzero" fill-opacity="1" /><path clip-path="url(#clip580)" d="M1363.78 28.5427 L1363.78 35.5912 Q1360.62 33.9709 1357.22 33.1607 Q1353.82 32.3505 1350.17 32.3505 Q1344.62 32.3505 1341.83 34.0519 Q1339.07 35.7533 1339.07 39.156 Q1339.07 41.7486 1341.06 43.2475 Q1343.04 44.7058 1349.04 46.0426 L1351.59 46.6097 Q1359.53 48.3111 1362.85 51.4303 Q1366.22 54.509 1366.22 60.0587 Q1366.22 66.3781 1361.19 70.0644 Q1356.21 73.7508 1347.46 73.7508 Q1343.81 73.7508 1339.84 73.0216 Q1335.91 72.3329 1331.54 70.9151 L1331.54 63.2184 Q1335.67 65.3654 1339.68 66.4591 Q1343.69 67.5124 1347.62 67.5124 Q1352.89 67.5124 1355.72 65.73 Q1358.56 63.9071 1358.56 60.6258 Q1358.56 57.5877 1356.49 55.9673 Q1354.47 54.3469 1347.54 52.8481 L1344.95 52.2405 Q1338.02 50.7821 1334.94 47.7845 Q1331.86 44.7463 1331.86 39.4801 Q1331.86 33.0797 1336.4 29.5959 Q1340.94 26.1121 1349.28 26.1121 Q1353.41 26.1121 1357.06 26.7198 Q1360.71 27.3274 1363.78 28.5427 Z" fill="#000000" fill-rule="nonzero" fill-opacity="1" /><path clip-path="url(#clip580)" d="M1434.31 34.0924 L1434.31 9.54393 L1441.76 9.54393 L1441.76 72.576 L1434.31 72.576 L1434.31 65.7705 Q1431.96 69.8214 1428.36 71.8063 Q1424.79 73.7508 1419.77 73.7508 Q1411.54 73.7508 1406.36 67.1883 Q1401.21 60.6258 1401.21 49.9314 Q1401.21 39.2371 1406.36 32.6746 Q1411.54 26.1121 1419.77 26.1121 Q1424.79 26.1121 1428.36 28.0971 Q1431.96 30.0415 1434.31 34.0924 M1408.91 49.9314 Q1408.91 58.1548 1412.27 62.8538 Q1415.68 67.5124 1421.59 67.5124 Q1427.51 67.5124 1430.91 62.8538 Q1434.31 58.1548 1434.31 49.9314 Q1434.31 41.7081 1430.91 37.0496 Q1427.51 32.3505 1421.59 32.3505 Q1415.68 32.3505 1412.27 37.0496 Q1408.91 41.7081 1408.91 49.9314 Z" fill="#000000" fill-rule="nonzero" fill-opacity="1" /><path clip-path="url(#clip580)" d="M1495.93 48.0275 L1495.93 51.6733 L1461.65 51.6733 Q1462.14 59.3701 1466.27 63.421 Q1470.44 67.4314 1477.86 67.4314 Q1482.15 67.4314 1486.16 66.3781 Q1490.21 65.3249 1494.18 63.2184 L1494.18 70.267 Q1490.17 71.9684 1485.96 72.8596 Q1481.75 73.7508 1477.41 73.7508 Q1466.56 73.7508 1460.2 67.4314 Q1453.88 61.1119 1453.88 50.3365 Q1453.88 39.1965 1459.87 32.6746 Q1465.91 26.1121 1476.12 26.1121 Q1485.27 26.1121 1490.58 32.0264 Q1495.93 37.9003 1495.93 48.0275 M1488.47 45.84 Q1488.39 39.7232 1485.03 36.0774 Q1481.71 32.4315 1476.2 32.4315 Q1469.96 32.4315 1466.19 35.9558 Q1462.46 39.4801 1461.9 45.8805 L1488.47 45.84 Z" fill="#000000" fill-rule="nonzero" fill-opacity="1" /><path clip-path="url(#clip580)" d="M1571.11 14.0809 L1571.11 22.0612 Q1566.45 19.8332 1562.32 18.7395 Q1558.19 17.6457 1554.34 17.6457 Q1547.66 17.6457 1544.01 20.2383 Q1540.4 22.8309 1540.4 27.611 Q1540.4 31.6214 1542.79 33.6873 Q1545.22 35.7128 1551.95 36.9686 L1556.89 37.9813 Q1566.05 39.7232 1570.38 44.1387 Q1574.76 48.5136 1574.76 55.8863 Q1574.76 64.6767 1568.84 69.2137 Q1562.97 73.7508 1551.58 73.7508 Q1547.29 73.7508 1542.43 72.7785 Q1537.61 71.8063 1532.42 69.9024 L1532.42 61.4765 Q1537.41 64.2716 1542.19 65.6895 Q1546.97 67.1073 1551.58 67.1073 Q1558.59 67.1073 1562.4 64.3527 Q1566.21 61.598 1566.21 56.4939 Q1566.21 52.0379 1563.45 49.5264 Q1560.74 47.0148 1554.5 45.759 L1549.52 44.7868 Q1540.36 42.9639 1536.27 39.075 Q1532.18 35.1862 1532.18 28.2591 Q1532.18 20.2383 1537.81 15.6203 Q1543.48 11.0023 1553.41 11.0023 Q1557.66 11.0023 1562.08 11.7719 Q1566.49 12.5416 1571.11 14.0809 Z" fill="#000000" fill-rule="nonzero" fill-opacity="1" /><path clip-path="url(#clip580)" d="M1594.56 14.324 L1594.56 27.2059 L1609.92 27.2059 L1609.92 32.9987 L1594.56 32.9987 L1594.56 57.6282 Q1594.56 63.1779 1596.06 64.7578 Q1597.6 66.3376 1602.26 66.3376 L1609.92 66.3376 L1609.92 72.576 L1602.26 72.576 Q1593.63 72.576 1590.35 69.3758 Q1587.07 66.1351 1587.07 57.6282 L1587.07 32.9987 L1581.6 32.9987 L1581.6 27.2059 L1587.07 27.2059 L1587.07 14.324 L1594.56 14.324 Z" fill="#000000" fill-rule="nonzero" fill-opacity="1" /><path clip-path="url(#clip580)" d="M1618.95 54.671 L1618.95 27.2059 L1626.4 27.2059 L1626.4 54.3874 Q1626.4 60.8284 1628.92 64.0691 Q1631.43 67.2693 1636.45 67.2693 Q1642.49 67.2693 1645.97 63.421 Q1649.49 59.5726 1649.49 52.9291 L1649.49 27.2059 L1656.95 27.2059 L1656.95 72.576 L1649.49 72.576 L1649.49 65.6084 Q1646.78 69.7404 1643.18 71.7658 Q1639.61 73.7508 1634.87 73.7508 Q1627.05 73.7508 1623 68.8897 Q1618.95 64.0286 1618.95 54.671 M1637.71 26.1121 L1637.71 26.1121 Z" fill="#000000" fill-rule="nonzero" fill-opacity="1" /><path clip-path="url(#clip580)" d="M1702.16 34.0924 L1702.16 9.54393 L1709.61 9.54393 L1709.61 72.576 L1702.16 72.576 L1702.16 65.7705 Q1699.81 69.8214 1696.2 71.8063 Q1692.64 73.7508 1687.61 73.7508 Q1679.39 73.7508 1674.21 67.1883 Q1669.06 60.6258 1669.06 49.9314 Q1669.06 39.2371 1674.21 32.6746 Q1679.39 26.1121 1687.61 26.1121 Q1692.64 26.1121 1696.2 28.0971 Q1699.81 30.0415 1702.16 34.0924 M1676.76 49.9314 Q1676.76 58.1548 1680.12 62.8538 Q1683.52 67.5124 1689.44 67.5124 Q1695.35 67.5124 1698.75 62.8538 Q1702.16 58.1548 1702.16 49.9314 Q1702.16 41.7081 1698.75 37.0496 Q1695.35 32.3505 1689.44 32.3505 Q1683.52 32.3505 1680.12 37.0496 Q1676.76 41.7081 1676.76 49.9314 Z" fill="#000000" fill-rule="nonzero" fill-opacity="1" /><path clip-path="url(#clip580)" d="M1763.77 48.0275 L1763.77 51.6733 L1729.5 51.6733 Q1729.99 59.3701 1734.12 63.421 Q1738.29 67.4314 1745.7 67.4314 Q1750 67.4314 1754.01 66.3781 Q1758.06 65.3249 1762.03 63.2184 L1762.03 70.267 Q1758.02 71.9684 1753.81 72.8596 Q1749.59 73.7508 1745.26 73.7508 Q1734.4 73.7508 1728.04 67.4314 Q1721.72 61.1119 1721.72 50.3365 Q1721.72 39.1965 1727.72 32.6746 Q1733.75 26.1121 1743.96 26.1121 Q1753.12 26.1121 1758.42 32.0264 Q1763.77 37.9003 1763.77 48.0275 M1756.32 45.84 Q1756.24 39.7232 1752.87 36.0774 Q1749.55 32.4315 1744.04 32.4315 Q1737.8 32.4315 1734.04 35.9558 Q1730.31 39.4801 1729.74 45.8805 L1756.32 45.84 Z" fill="#000000" fill-rule="nonzero" fill-opacity="1" /><path clip-path="url(#clip580)" d="M1813.72 45.1919 L1813.72 72.576 L1806.26 72.576 L1806.26 45.4349 Q1806.26 38.994 1803.75 35.7938 Q1801.24 32.5936 1796.22 32.5936 Q1790.18 32.5936 1786.7 36.4419 Q1783.22 40.2903 1783.22 46.9338 L1783.22 72.576 L1775.72 72.576 L1775.72 27.2059 L1783.22 27.2059 L1783.22 34.2544 Q1785.89 30.163 1789.49 28.1376 Q1793.14 26.1121 1797.88 26.1121 Q1805.7 26.1121 1809.71 30.9732 Q1813.72 35.7938 1813.72 45.1919 Z" fill="#000000" fill-rule="nonzero" fill-opacity="1" /><path clip-path="url(#clip580)" d="M1835.96 14.324 L1835.96 27.2059 L1851.31 27.2059 L1851.31 32.9987 L1835.96 32.9987 L1835.96 57.6282 Q1835.96 63.1779 1837.46 64.7578 Q1839 66.3376 1843.65 66.3376 L1851.31 66.3376 L1851.31 72.576 L1843.65 72.576 Q1835.03 72.576 1831.75 69.3758 Q1828.46 66.1351 1828.46 57.6282 L1828.46 32.9987 L1823 32.9987 L1823 27.2059 L1828.46 27.2059 L1828.46 14.324 L1835.96 14.324 Z" fill="#000000" fill-rule="nonzero" fill-opacity="1" /><polyline clip-path="url(#clip582)" style="stroke:#0000ff; stroke-linecap:round; stroke-linejoin:round; stroke-width:8; stroke-opacity:1; fill:none" points="280.231,1348.77 300.353,1347.28 320.474,1345.7 340.596,1344.03 360.717,1342.25 380.839,1340.36 400.961,1338.35 421.082,1336.2 441.204,1333.92 461.325,1331.47 481.447,1328.85 501.569,1326.05 521.69,1323.04 541.812,1319.8 561.933,1316.32 582.055,1312.56 602.177,1308.51 622.298,1304.12 642.42,1299.36 662.541,1294.19 682.663,1288.57 702.785,1282.43 722.906,1275.73 743.028,1268.39 763.149,1260.33 783.271,1251.46 803.393,1241.68 823.514,1230.86 843.636,1218.88 863.757,1205.56 883.879,1190.74 904.001,1174.18 924.122,1155.66 944.244,1134.9 964.365,1111.59 984.487,1085.38 1004.61,1055.89 1024.73,1022.71 1044.85,985.449 1064.97,943.721 1085.1,897.24 1105.22,845.891 1125.34,789.863 1145.46,729.809 1165.58,667.046 1185.7,603.743 1205.82,543.02 1225.95,488.858 1246.07,445.707 1266.19,417.765 1286.31,408.079 1306.43,417.765 1326.55,445.707 1346.68,488.858 1366.8,543.02 1386.92,603.743 1407.04,667.046 1427.16,729.809 1447.28,789.863 1467.41,845.891 1487.53,897.24 1507.65,943.721 1527.77,985.449 1547.89,1022.71 1568.01,1055.89 1588.14,1085.38 1608.26,1111.59 1628.38,1134.9 1648.5,1155.66 1668.62,1174.18 1688.74,1190.74 1708.86,1205.56 1728.99,1218.88 1749.11,1230.86 1769.23,1241.68 1789.35,1251.46 1809.47,1260.33 1829.59,1268.39 1849.72,1275.73 1869.84,1282.43 1889.96,1288.57 1910.08,1294.19 1930.2,1299.36 1950.32,1304.12 1970.45,1308.51 1990.57,1312.56 2010.69,1316.32 2030.81,1319.8 2050.93,1323.04 2071.05,1326.05 2091.18,1328.85 2111.3,1331.47 2131.42,1333.92 2151.54,1336.2 2171.66,1338.35 2191.78,1340.36 2211.9,1342.25 2232.03,1344.03 2252.15,1345.7 2272.27,1347.28 2292.39,1348.77 "/>
<polyline clip-path="url(#clip582)" style="stroke:#008000; stroke-linecap:round; stroke-linejoin:round; stroke-width:8; stroke-opacity:1; fill:none" points="280.231,1364.49 300.353,1363.23 320.474,1361.87 340.596,1360.41 360.717,1358.82 380.839,1357.12 400.961,1355.27 421.082,1353.26 441.204,1351.09 461.325,1348.73 481.447,1346.15 501.569,1343.35 521.69,1340.29 541.812,1336.95 561.933,1333.28 582.055,1329.26 602.177,1324.85 622.298,1319.99 642.42,1314.63 662.541,1308.71 682.663,1302.16 702.785,1294.89 722.906,1286.83 743.028,1277.86 763.149,1267.86 783.271,1256.7 803.393,1244.22 823.514,1230.25 843.636,1214.59 863.757,1197.02 883.879,1177.28 904.001,1155.09 924.122,1130.17 944.244,1102.17 964.365,1070.77 984.487,1035.61 1004.61,996.379 1024.73,952.798 1044.85,904.681 1064.97,851.991 1085.1,794.907 1105.22,733.913 1125.34,669.885 1145.46,604.174 1165.58,538.659 1185.7,475.737 1205.82,418.232 1225.95,369.187 1246.07,331.561 1266.19,307.858 1286.31,299.758 1306.43,307.858 1326.55,331.561 1346.68,369.187 1366.8,418.232 1386.92,475.737 1407.04,538.659 1427.16,604.174 1447.28,669.885 1467.41,733.913 1487.53,794.907 1507.65,851.991 1527.77,904.681 1547.89,952.798 1568.01,996.379 1588.14,1035.61 1608.26,1070.77 1628.38,1102.17 1648.5,1130.17 1668.62,1155.09 1688.74,1177.28 1708.86,1197.02 1728.99,1214.59 1749.11,1230.25 1769.23,1244.22 1789.35,1256.7 1809.47,1267.86 1829.59,1277.86 1849.72,1286.83 1869.84,1294.89 1889.96,1302.16 1910.08,1308.71 1930.2,1314.63 1950.32,1319.99 1970.45,1324.85 1990.57,1329.26 2010.69,1333.28 2030.81,1336.95 2050.93,1340.29 2071.05,1343.35 2091.18,1346.15 2111.3,1348.73 2131.42,1351.09 2151.54,1353.26 2171.66,1355.27 2191.78,1357.12 2211.9,1358.82 2232.03,1360.41 2252.15,1361.87 2272.27,1363.23 2292.39,1364.49 "/>
<polyline clip-path="url(#clip582)" style="stroke:#ff0000; stroke-linecap:round; stroke-linejoin:round; stroke-width:8; stroke-opacity:1; fill:none" points="280.231,1381 300.353,1380.43 320.474,1379.79 340.596,1379.06 360.717,1378.25 380.839,1377.34 400.961,1376.31 421.082,1375.15 441.204,1373.83 461.325,1372.34 481.447,1370.65 501.569,1368.73 521.69,1366.55 541.812,1364.06 561.933,1361.23 582.055,1357.99 602.177,1354.29 622.298,1350.05 642.42,1345.2 662.541,1339.63 682.663,1333.25 702.785,1325.92 722.906,1317.51 743.028,1307.84 763.149,1296.73 783.271,1283.97 803.393,1269.33 823.514,1252.55 843.636,1233.33 863.757,1211.37 883.879,1186.35 904.001,1157.91 924.122,1125.73 944.244,1089.48 964.365,1048.87 984.487,1003.7 1004.61,953.839 1024.73,899.324 1044.85,840.369 1064.97,777.424 1085.1,711.217 1105.22,642.787 1125.34,573.499 1145.46,505.03 1165.58,439.333 1185.7,378.547 1205.82,324.885 1225.95,280.485 1246.07,247.243 1266.19,226.656 1286.31,219.684 1306.43,226.656 1326.55,247.243 1346.68,280.485 1366.8,324.885 1386.92,378.547 1407.04,439.333 1427.16,505.03 1447.28,573.499 1467.41,642.787 1487.53,711.217 1507.65,777.424 1527.77,840.369 1547.89,899.324 1568.01,953.839 1588.14,1003.7 1608.26,1048.87 1628.38,1089.48 1648.5,1125.73 1668.62,1157.91 1688.74,1186.35 1708.86,1211.37 1728.99,1233.33 1749.11,1252.55 1769.23,1269.33 1789.35,1283.97 1809.47,1296.73 1829.59,1307.84 1849.72,1317.51 1869.84,1325.92 1889.96,1333.25 1910.08,1339.63 1930.2,1345.2 1950.32,1350.05 1970.45,1354.29 1990.57,1357.99 2010.69,1361.23 2030.81,1364.06 2050.93,1366.55 2071.05,1368.73 2091.18,1370.65 2111.3,1372.34 2131.42,1373.83 2151.54,1375.15 2171.66,1376.31 2191.78,1377.34 2211.9,1378.25 2232.03,1379.06 2252.15,1379.79 2272.27,1380.43 2292.39,1381 "/>
<polyline clip-path="url(#clip582)" style="stroke:#800080; stroke-linecap:round; stroke-linejoin:round; stroke-width:8; stroke-opacity:1; fill:none" points="280.231,1385.18 300.353,1384.98 320.474,1384.73 340.596,1384.44 360.717,1384.09 380.839,1383.69 400.961,1383.2 421.082,1382.63 441.204,1381.94 461.325,1381.13 481.447,1380.16 501.569,1379 521.69,1377.63 541.812,1375.99 561.933,1374.03 582.055,1371.7 602.177,1368.92 622.298,1365.6 642.42,1361.65 662.541,1356.95 682.663,1351.36 702.785,1344.72 722.906,1336.85 743.028,1327.54 763.149,1316.55 783.271,1303.6 803.393,1288.42 823.514,1270.67 843.636,1250 863.757,1226.06 883.879,1198.47 904.001,1166.88 924.122,1130.94 944.244,1090.39 964.365,1045 984.487,994.7 1004.61,939.531 1024.73,879.734 1044.85,815.765 1064.97,748.326 1085.1,678.386 1105.22,607.179 1125.34,536.196 1145.46,467.144 1165.58,401.883 1185.7,342.352 1205.82,290.461 1225.95,247.985 1246.07,216.452 1266.19,197.037 1286.31,190.481 1306.43,197.037 1326.55,216.452 1346.68,247.985 1366.8,290.461 1386.92,342.352 1407.04,401.883 1427.16,467.144 1447.28,536.196 1467.41,607.179 1487.53,678.386 1507.65,748.326 1527.77,815.765 1547.89,879.734 1568.01,939.531 1588.14,994.7 1608.26,1045 1628.38,1090.39 1648.5,1130.94 1668.62,1166.88 1688.74,1198.47 1708.86,1226.06 1728.99,1250 1749.11,1270.67 1769.23,1288.42 1789.35,1303.6 1809.47,1316.55 1829.59,1327.54 1849.72,1336.85 1869.84,1344.72 1889.96,1351.36 1910.08,1356.95 1930.2,1361.65 1950.32,1365.6 1970.45,1368.92 1990.57,1371.7 2010.69,1374.03 2030.81,1375.99 2050.93,1377.63 2071.05,1379 2091.18,1380.16 2111.3,1381.13 2131.42,1381.94 2151.54,1382.63 2171.66,1383.2 2191.78,1383.69 2211.9,1384.09 2232.03,1384.44 2252.15,1384.73 2272.27,1384.98 2292.39,1385.18 "/>
<polyline clip-path="url(#clip582)" style="stroke:#000000; stroke-linecap:round; stroke-linejoin:round; stroke-width:8; stroke-opacity:1; fill:none" stroke-dasharray="32, 20" points="280.231,1386.4 300.353,1386.39 320.474,1386.39 340.596,1386.38 360.717,1386.37 380.839,1386.35 400.961,1386.32 421.082,1386.28 441.204,1386.22 461.325,1386.13 481.447,1385.99 501.569,1385.79 521.69,1385.5 541.812,1385.09 561.933,1384.52 582.055,1383.72 602.177,1382.61 622.298,1381.11 642.42,1379.07 662.541,1376.36 682.663,1372.78 702.785,1368.11 722.906,1362.07 743.028,1354.37 763.149,1344.65 783.271,1332.53 803.393,1317.57 823.514,1299.34 843.636,1277.37 863.757,1251.22 883.879,1220.46 904.001,1184.73 924.122,1143.75 944.244,1097.34 964.365,1045.49 984.487,988.33 1004.61,926.215 1024.73,859.701 1044.85,789.572 1064.97,716.834 1085.1,642.706 1105.22,568.591 1125.34,496.037 1145.46,426.692 1165.58,362.239 1185.7,304.332 1205.82,254.527 1225.95,214.21 1246.07,184.536 1266.19,166.372 1286.31,160.256 1306.43,166.372 1326.55,184.536 1346.68,214.21 1366.8,254.527 1386.92,304.332 1407.04,362.239 1427.16,426.692 1447.28,496.037 1467.41,568.591 1487.53,642.706 1507.65,716.834 1527.77,789.572 1547.89,859.701 1568.01,926.215 1588.14,988.33 1608.26,1045.49 1628.38,1097.34 1648.5,1143.75 1668.62,1184.73 1688.74,1220.46 1708.86,1251.22 1728.99,1277.37 1749.11,1299.34 1769.23,1317.57 1789.35,1332.53 1809.47,1344.65 1829.59,1354.37 1849.72,1362.07 1869.84,1368.11 1889.96,1372.78 1910.08,1376.36 1930.2,1379.07 1950.32,1381.11 1970.45,1382.61 1990.57,1383.72 2010.69,1384.52 2030.81,1385.09 2050.93,1385.5 2071.05,1385.79 2091.18,1385.99 2111.3,1386.13 2131.42,1386.22 2151.54,1386.28 2171.66,1386.32 2191.78,1386.35 2211.9,1386.37 2232.03,1386.38 2252.15,1386.39 2272.27,1386.39 2292.39,1386.4 "/>
<path clip-path="url(#clip580)" d="M1929.25 477.836 L2281.66 477.836 L2281.66 166.796 L1929.25 166.796  Z" fill="#ffffff" fill-rule="evenodd" fill-opacity="1"/>
<polyline clip-path="url(#clip580)" style="stroke:#000000; stroke-linecap:round; stroke-linejoin:round; stroke-width:4; stroke-opacity:1; fill:none" points="1929.25,477.836 2281.66,477.836 2281.66,166.796 1929.25,166.796 1929.25,477.836 "/>
<polyline clip-path="url(#clip580)" style="stroke:#0000ff; stroke-linecap:round; stroke-linejoin:round; stroke-width:8; stroke-opacity:1; fill:none" points="1952.95,218.636 2095.14,218.636 "/>
<path clip-path="url(#clip580)" d="M2118.84 201.356 L2148.08 201.356 L2148.08 205.291 L2135.81 205.291 L2135.81 235.916 L2131.11 235.916 L2131.11 205.291 L2118.84 205.291 L2118.84 201.356 Z" fill="#000000" fill-rule="nonzero" fill-opacity="1" /><path clip-path="url(#clip580)" d="M2162.64 199.944 Q2159.54 205.268 2158.03 210.476 Q2156.53 215.684 2156.53 221.032 Q2156.53 226.379 2158.03 231.633 Q2159.56 236.865 2162.64 242.166 L2158.93 242.166 Q2155.46 236.726 2153.73 231.471 Q2152.01 226.217 2152.01 221.032 Q2152.01 215.87 2153.73 210.638 Q2155.44 205.407 2158.93 199.944 L2162.64 199.944 Z" fill="#000000" fill-rule="nonzero" fill-opacity="1" /><path clip-path="url(#clip580)" d="M2172.31 231.981 L2179.95 231.981 L2179.95 205.615 L2171.64 207.282 L2171.64 203.022 L2179.91 201.356 L2184.58 201.356 L2184.58 231.981 L2192.22 231.981 L2192.22 235.916 L2172.31 235.916 L2172.31 231.981 Z" fill="#000000" fill-rule="nonzero" fill-opacity="1" /><path clip-path="url(#clip580)" d="M2200.39 199.944 L2204.1 199.944 Q2207.57 205.407 2209.28 210.638 Q2211.02 215.87 2211.02 221.032 Q2211.02 226.217 2209.28 231.471 Q2207.57 236.726 2204.1 242.166 L2200.39 242.166 Q2203.47 236.865 2204.97 231.633 Q2206.5 226.379 2206.5 221.032 Q2206.5 215.684 2204.97 210.476 Q2203.47 205.268 2200.39 199.944 Z" fill="#000000" fill-rule="nonzero" fill-opacity="1" /><polyline clip-path="url(#clip580)" style="stroke:#008000; stroke-linecap:round; stroke-linejoin:round; stroke-width:8; stroke-opacity:1; fill:none" points="1952.95,270.476 2095.14,270.476 "/>
<path clip-path="url(#clip580)" d="M2118.84 253.196 L2148.08 253.196 L2148.08 257.131 L2135.81 257.131 L2135.81 287.756 L2131.11 287.756 L2131.11 257.131 L2118.84 257.131 L2118.84 253.196 Z" fill="#000000" fill-rule="nonzero" fill-opacity="1" /><path clip-path="url(#clip580)" d="M2162.64 251.784 Q2159.54 257.108 2158.03 262.316 Q2156.53 267.524 2156.53 272.872 Q2156.53 278.219 2158.03 283.473 Q2159.56 288.705 2162.64 294.006 L2158.93 294.006 Q2155.46 288.566 2153.73 283.311 Q2152.01 278.057 2152.01 272.872 Q2152.01 267.71 2153.73 262.478 Q2155.44 257.247 2158.93 251.784 L2162.64 251.784 Z" fill="#000000" fill-rule="nonzero" fill-opacity="1" /><path clip-path="url(#clip580)" d="M2175.53 283.821 L2191.85 283.821 L2191.85 287.756 L2169.91 287.756 L2169.91 283.821 Q2172.57 281.066 2177.15 276.436 Q2181.76 271.784 2182.94 270.441 Q2185.18 267.918 2186.06 266.182 Q2186.97 264.423 2186.97 262.733 Q2186.97 259.978 2185.02 258.242 Q2183.1 256.506 2180 256.506 Q2177.8 256.506 2175.35 257.27 Q2172.91 258.034 2170.14 259.585 L2170.14 254.862 Q2172.96 253.728 2175.41 253.149 Q2177.87 252.571 2179.91 252.571 Q2185.28 252.571 2188.47 255.256 Q2191.66 257.941 2191.66 262.432 Q2191.66 264.561 2190.85 266.483 Q2190.07 268.381 2187.96 270.973 Q2187.38 271.645 2184.28 274.862 Q2181.18 278.057 2175.53 283.821 Z" fill="#000000" fill-rule="nonzero" fill-opacity="1" /><path clip-path="url(#clip580)" d="M2200.39 251.784 L2204.1 251.784 Q2207.57 257.247 2209.28 262.478 Q2211.02 267.71 2211.02 272.872 Q2211.02 278.057 2209.28 283.311 Q2207.57 288.566 2204.1 294.006 L2200.39 294.006 Q2203.47 288.705 2204.97 283.473 Q2206.5 278.219 2206.5 272.872 Q2206.5 267.524 2204.97 262.316 Q2203.47 257.108 2200.39 251.784 Z" fill="#000000" fill-rule="nonzero" fill-opacity="1" /><polyline clip-path="url(#clip580)" style="stroke:#ff0000; stroke-linecap:round; stroke-linejoin:round; stroke-width:8; stroke-opacity:1; fill:none" points="1952.95,322.316 2095.14,322.316 "/>
<path clip-path="url(#clip580)" d="M2118.84 305.036 L2148.08 305.036 L2148.08 308.971 L2135.81 308.971 L2135.81 339.596 L2131.11 339.596 L2131.11 308.971 L2118.84 308.971 L2118.84 305.036 Z" fill="#000000" fill-rule="nonzero" fill-opacity="1" /><path clip-path="url(#clip580)" d="M2162.64 303.624 Q2159.54 308.948 2158.03 314.156 Q2156.53 319.364 2156.53 324.712 Q2156.53 330.059 2158.03 335.313 Q2159.56 340.545 2162.64 345.846 L2158.93 345.846 Q2155.46 340.406 2153.73 335.151 Q2152.01 329.897 2152.01 324.712 Q2152.01 319.55 2153.73 314.318 Q2155.44 309.087 2158.93 303.624 L2162.64 303.624 Z" fill="#000000" fill-rule="nonzero" fill-opacity="1" /><path clip-path="url(#clip580)" d="M2171.55 305.036 L2189.91 305.036 L2189.91 308.971 L2175.83 308.971 L2175.83 317.443 Q2176.85 317.096 2177.87 316.934 Q2178.89 316.749 2179.91 316.749 Q2185.69 316.749 2189.07 319.92 Q2192.45 323.091 2192.45 328.508 Q2192.45 334.086 2188.98 337.188 Q2185.51 340.267 2179.19 340.267 Q2177.01 340.267 2174.74 339.897 Q2172.5 339.526 2170.09 338.786 L2170.09 334.086 Q2172.17 335.221 2174.4 335.776 Q2176.62 336.332 2179.1 336.332 Q2183.1 336.332 2185.44 334.225 Q2187.78 332.119 2187.78 328.508 Q2187.78 324.897 2185.44 322.79 Q2183.1 320.684 2179.1 320.684 Q2177.22 320.684 2175.35 321.1 Q2173.49 321.517 2171.55 322.397 L2171.55 305.036 Z" fill="#000000" fill-rule="nonzero" fill-opacity="1" /><path clip-path="url(#clip580)" d="M2200.39 303.624 L2204.1 303.624 Q2207.57 309.087 2209.28 314.318 Q2211.02 319.55 2211.02 324.712 Q2211.02 329.897 2209.28 335.151 Q2207.57 340.406 2204.1 345.846 L2200.39 345.846 Q2203.47 340.545 2204.97 335.313 Q2206.5 330.059 2206.5 324.712 Q2206.5 319.364 2204.97 314.156 Q2203.47 308.948 2200.39 303.624 Z" fill="#000000" fill-rule="nonzero" fill-opacity="1" /><polyline clip-path="url(#clip580)" style="stroke:#800080; stroke-linecap:round; stroke-linejoin:round; stroke-width:8; stroke-opacity:1; fill:none" points="1952.95,374.156 2095.14,374.156 "/>
<path clip-path="url(#clip580)" d="M2118.84 356.876 L2148.08 356.876 L2148.08 360.811 L2135.81 360.811 L2135.81 391.436 L2131.11 391.436 L2131.11 360.811 L2118.84 360.811 L2118.84 356.876 Z" fill="#000000" fill-rule="nonzero" fill-opacity="1" /><path clip-path="url(#clip580)" d="M2162.64 355.464 Q2159.54 360.788 2158.03 365.996 Q2156.53 371.204 2156.53 376.552 Q2156.53 381.899 2158.03 387.153 Q2159.56 392.385 2162.64 397.686 L2158.93 397.686 Q2155.46 392.246 2153.73 386.991 Q2152.01 381.737 2152.01 376.552 Q2152.01 371.39 2153.73 366.158 Q2155.44 360.927 2158.93 355.464 L2162.64 355.464 Z" fill="#000000" fill-rule="nonzero" fill-opacity="1" /><path clip-path="url(#clip580)" d="M2172.31 387.501 L2179.95 387.501 L2179.95 361.135 L2171.64 362.802 L2171.64 358.542 L2179.91 356.876 L2184.58 356.876 L2184.58 387.501 L2192.22 387.501 L2192.22 391.436 L2172.31 391.436 L2172.31 387.501 Z" fill="#000000" fill-rule="nonzero" fill-opacity="1" /><path clip-path="url(#clip580)" d="M2211.66 359.954 Q2208.05 359.954 2206.22 363.519 Q2204.42 367.061 2204.42 374.19 Q2204.42 381.297 2206.22 384.862 Q2208.05 388.403 2211.66 388.403 Q2215.3 388.403 2217.1 384.862 Q2218.93 381.297 2218.93 374.19 Q2218.93 367.061 2217.1 363.519 Q2215.3 359.954 2211.66 359.954 M2211.66 356.251 Q2217.47 356.251 2220.53 360.857 Q2223.61 365.44 2223.61 374.19 Q2223.61 382.917 2220.53 387.524 Q2217.47 392.107 2211.66 392.107 Q2205.85 392.107 2202.78 387.524 Q2199.72 382.917 2199.72 374.19 Q2199.72 365.44 2202.78 360.857 Q2205.85 356.251 2211.66 356.251 Z" fill="#000000" fill-rule="nonzero" fill-opacity="1" /><path clip-path="url(#clip580)" d="M2230.55 355.464 L2234.26 355.464 Q2237.73 360.927 2239.44 366.158 Q2241.18 371.39 2241.18 376.552 Q2241.18 381.737 2239.44 386.991 Q2237.73 392.246 2234.26 397.686 L2230.55 397.686 Q2233.63 392.385 2235.14 387.153 Q2236.66 381.899 2236.66 376.552 Q2236.66 371.204 2235.14 365.996 Q2233.63 360.788 2230.55 355.464 Z" fill="#000000" fill-rule="nonzero" fill-opacity="1" /><polyline clip-path="url(#clip580)" style="stroke:#000000; stroke-linecap:round; stroke-linejoin:round; stroke-width:8; stroke-opacity:1; fill:none" stroke-dasharray="32, 20" points="1952.95,425.996 2095.14,425.996 "/>
<path clip-path="url(#clip580)" d="M2118.84 408.716 L2125.14 408.716 L2140.46 437.628 L2140.46 408.716 L2145 408.716 L2145 443.276 L2138.7 443.276 L2123.38 414.364 L2123.38 443.276 L2118.84 443.276 L2118.84 408.716 Z" fill="#000000" fill-rule="nonzero" fill-opacity="1" /><path clip-path="url(#clip580)" d="M2164.35 407.304 Q2161.25 412.628 2159.74 417.836 Q2158.24 423.044 2158.24 428.392 Q2158.24 433.739 2159.74 438.993 Q2161.27 444.225 2164.35 449.526 L2160.65 449.526 Q2157.17 444.086 2155.44 438.831 Q2153.73 433.577 2153.73 428.392 Q2153.73 423.23 2155.44 417.998 Q2157.15 412.767 2160.65 407.304 L2164.35 407.304 Z" fill="#000000" fill-rule="nonzero" fill-opacity="1" /><path clip-path="url(#clip580)" d="M2183.22 411.794 Q2179.6 411.794 2177.78 415.359 Q2175.97 418.901 2175.97 426.03 Q2175.97 433.137 2177.78 436.702 Q2179.6 440.243 2183.22 440.243 Q2186.85 440.243 2188.66 436.702 Q2190.48 433.137 2190.48 426.03 Q2190.48 418.901 2188.66 415.359 Q2186.85 411.794 2183.22 411.794 M2183.22 408.091 Q2189.03 408.091 2192.08 412.697 Q2195.16 417.28 2195.16 426.03 Q2195.16 434.757 2192.08 439.364 Q2189.03 443.947 2183.22 443.947 Q2177.41 443.947 2174.33 439.364 Q2171.27 434.757 2171.27 426.03 Q2171.27 417.28 2174.33 412.697 Q2177.41 408.091 2183.22 408.091 Z" fill="#000000" fill-rule="nonzero" fill-opacity="1" /><path clip-path="url(#clip580)" d="M2203.86 437.396 L2208.75 437.396 L2208.75 441.378 L2204.95 448.785 L2201.97 448.785 L2203.86 441.378 L2203.86 437.396 Z" fill="#000000" fill-rule="nonzero" fill-opacity="1" /><path clip-path="url(#clip580)" d="M2219.26 439.341 L2226.9 439.341 L2226.9 412.975 L2218.59 414.642 L2218.59 410.382 L2226.85 408.716 L2231.53 408.716 L2231.53 439.341 L2239.16 439.341 L2239.16 443.276 L2219.26 443.276 L2219.26 439.341 Z" fill="#000000" fill-rule="nonzero" fill-opacity="1" /><path clip-path="url(#clip580)" d="M2247.34 407.304 L2251.04 407.304 Q2254.51 412.767 2256.22 417.998 Q2257.96 423.23 2257.96 428.392 Q2257.96 433.577 2256.22 438.831 Q2254.51 444.086 2251.04 449.526 L2247.34 449.526 Q2250.41 444.225 2251.92 438.993 Q2253.45 433.739 2253.45 428.392 Q2253.45 423.044 2251.92 417.836 Q2250.41 412.628 2247.34 407.304 Z" fill="#000000" fill-rule="nonzero" fill-opacity="1" /></svg>
